<svg width="101" height="100" viewBox="0 0 101 100" fill="none" xmlns="http://www.w3.org/2000/svg">
<path fill-rule="evenodd" clip-rule="evenodd" d="M33.3868 19.899C28.4163 19.899 24.3868 23.9284 24.3868 28.8989V67.101C24.3868 68.8762 24.9008 70.5313 25.788 71.9257V77.101C25.788 78.7579 27.1311 80.101 28.788 80.101H34.8567C36.5136 80.101 37.8567 78.7579 37.8567 77.101V76.101H62.9169V77.101C62.9169 78.7579 64.26 80.101 65.9169 80.101H71.9856C73.6425 80.101 74.9856 78.7579 74.9856 77.101V71.9259C75.8729 70.5315 76.3868 68.8763 76.3868 67.1011V28.899C76.3868 23.9284 72.3574 19.899 67.3868 19.899H33.3868ZM33.4629 26.5332C31.806 26.5332 30.4629 27.8763 30.4629 29.5332V49C30.4629 49.5523 30.9106 50 31.4629 50H69.3108C69.8631 50 70.3108 49.5523 70.3108 49V29.5332C70.3108 27.8763 68.9676 26.5332 67.3108 26.5332H33.4629ZM30.4629 64.049C30.4629 61.5637 32.4776 59.549 34.9629 59.549C37.4482 59.549 39.4629 61.5637 39.4629 64.049C39.4629 66.5343 37.4482 68.549 34.9629 68.549C32.4776 68.549 30.4629 66.5343 30.4629 64.049ZM65.8108 59.549C63.3255 59.549 61.3108 61.5637 61.3108 64.049C61.3108 66.5343 63.3255 68.549 65.8108 68.549C68.2961 68.549 70.3108 66.5343 70.3108 64.049C70.3108 61.5637 68.2961 59.549 65.8108 59.549Z" fill="white"/>
<rect x="17.9117" y="32.1081" width="10" height="17.8918" rx="2" fill="white"/>
<rect x="72.8619" y="32.1081" width="10" height="17.8918" rx="2" fill="white"/>
</svg>
