<svg width="101" height="100" viewBox="0 0 101 100" fill="none" xmlns="http://www.w3.org/2000/svg">
<path fill-rule="evenodd" clip-rule="evenodd" d="M33.3868 22C28.4163 22 24.3868 26.0294 24.3868 31V64.3238C24.3868 66.0989 24.9008 67.754 25.788 69.1484V73.9766C25.788 75.6334 27.1311 76.9766 28.788 76.9766H34.8567C36.5136 76.9766 37.8567 75.6334 37.8567 73.9766V73.3238H62.9169V73.9766C62.9169 75.6334 64.26 76.9766 65.9169 76.9766H71.9856C73.6425 76.9766 74.9856 75.6334 74.9856 73.9766V69.1486C75.8729 67.7542 76.3868 66.099 76.3868 64.3238V31C76.3868 26.0294 72.3574 22 67.3868 22H33.3868ZM33.4629 28.9836C31.806 28.9836 30.4629 30.3268 30.4629 31.9836V45.8755C30.4629 46.4278 30.9106 46.8755 31.4629 46.8755H69.3108C69.8631 46.8755 70.3108 46.4278 70.3108 45.8755V31.9836C70.3108 30.3268 68.9676 28.9836 67.3108 28.9836H33.4629ZM30.4629 60.9245C30.4629 58.4392 32.4776 56.4245 34.9629 56.4245C37.4482 56.4245 39.4629 58.4392 39.4629 60.9245C39.4629 63.4098 37.4482 65.4245 34.9629 65.4245C32.4776 65.4245 30.4629 63.4098 30.4629 60.9245ZM65.8108 56.4245C63.3255 56.4245 61.3108 58.4392 61.3108 60.9245C61.3108 63.4098 63.3255 65.4245 65.8108 65.4245C68.2961 65.4245 70.3108 63.4098 70.3108 60.9245C70.3108 58.4392 68.2961 56.4245 65.8108 56.4245Z" fill="white"/>
<rect x="17.9117" y="28.9836" width="10" height="17.8918" rx="2" fill="white"/>
<rect x="72.8619" y="28.9836" width="10" height="17.8918" rx="2" fill="white"/>
</svg>
