<svg width="101" height="100" viewBox="0 0 101 100" fill="none" xmlns="http://www.w3.org/2000/svg">
<path fill-rule="evenodd" clip-rule="evenodd" d="M33.3868 26.8625C28.4163 26.8625 24.3868 30.8919 24.3868 35.8625V74.0646C24.3868 79.0351 28.4163 83.0646 33.3868 83.0646H67.3868C72.3574 83.0646 76.3868 79.0351 76.3868 74.0646V35.8625C76.3868 30.8919 72.3574 26.8625 67.3868 26.8625H33.3868ZM33.7294 33.4967C31.9721 33.4967 30.591 35.0004 30.7403 36.7515L32.3849 56.0484C32.429 56.5659 32.869 56.9635 33.3883 56.9635H67.3854C67.9047 56.9635 68.3447 56.5659 68.3888 56.0484L70.0334 36.7515C70.1826 35.0004 68.8016 33.4967 67.0442 33.4967H33.7294ZM33.4343 72.4568C33.4343 69.9715 35.449 67.9568 37.9343 67.9568C40.4195 67.9568 42.4343 69.9715 42.4343 72.4568C42.4343 74.9421 40.4195 76.9568 37.9343 76.9568C35.449 76.9568 33.4343 74.9421 33.4343 72.4568ZM62.8394 67.9568C60.3541 67.9568 58.3394 69.9715 58.3394 72.4568C58.3394 74.9421 60.3541 76.9568 62.8394 76.9568C65.3247 76.9568 67.3394 74.9421 67.3394 72.4568C67.3394 69.9715 65.3247 67.9568 62.8394 67.9568Z" fill="white"/>
<rect x="34.4017" y="16.9354" width="30.9703" height="6" rx="3" fill="white"/>
</svg>
