<svg width="101" height="100" viewBox="0 0 101 100" fill="none" xmlns="http://www.w3.org/2000/svg">
<rect x="52.7007" y="28.5007" width="13.9805" height="6" rx="3" transform="rotate(-90 52.7007 28.5007)" fill="white"/>
<rect x="42.073" y="28.5004" width="13.9805" height="6" rx="3" transform="rotate(-90 42.073 28.5004)" fill="white"/>
<path fill-rule="evenodd" clip-rule="evenodd" d="M35.0218 24.5876C30.5293 24.5876 26.8873 28.2295 26.8873 32.722V67.2502C26.8873 68.8547 27.3518 70.3506 28.1537 71.6109V76.2885C28.1537 77.786 29.3677 79 30.8652 79H36.3503C37.8478 79 39.0618 77.786 39.0618 76.2885V75.3847H61.7119V76.2885C61.7119 77.786 62.9259 79 64.4234 79H69.9085C71.406 79 72.62 77.786 72.62 76.2885V71.6111C73.4219 70.3507 73.8865 68.8547 73.8865 67.2502V32.722C73.8865 28.2295 70.2445 24.5876 65.752 24.5876H35.0218ZM35.0905 30.5838C33.593 30.5838 32.379 31.7978 32.379 33.2953V50.7938C32.379 51.346 32.8268 51.7938 33.379 51.7938H67.3947C67.947 51.7938 68.3947 51.346 68.3947 50.7938V33.2953C68.3947 31.7978 67.1808 30.5838 65.6833 30.5838H35.0905ZM32.379 64.4917C32.379 62.2454 34.2 60.4244 36.4463 60.4244C38.6925 60.4244 40.5135 62.2454 40.5135 64.4917C40.5135 66.7379 38.6925 68.5589 36.4463 68.5589C34.2 68.5589 32.379 66.7379 32.379 64.4917ZM64.3275 60.4244C62.0812 60.4244 60.2603 62.2454 60.2603 64.4917C60.2603 66.7379 62.0812 68.5589 64.3275 68.5589C66.5738 68.5589 68.3947 66.7379 68.3947 64.4917C68.3947 62.2454 66.5738 60.4244 64.3275 60.4244Z" fill="white"/>
</svg>
